<svg width="130" height="24" viewBox="0 0 130 24" fill="none" xmlns="http://www.w3.org/2000/svg">
<path d="M60.1281 15.0123C60.7649 15.0123 61.2919 14.9025 61.753 14.6609C62.2141 14.4194 62.5654 14.09 62.807 13.6509C63.0485 13.2117 63.1802 12.7067 63.1802 12.1138C63.1802 11.5209 63.0485 10.994 62.807 10.5548C62.5654 10.1156 62.1921 9.76431 61.731 9.52278C61.2699 9.28124 60.721 9.14949 60.0842 9.14949H58.3056V15.0123H60.1281ZM56 7.10741H60.1501C61.204 7.10741 62.1482 7.30503 62.9607 7.70027C63.7731 8.09551 64.4099 8.66642 64.871 9.41299C65.3321 10.1596 65.5517 11.0379 65.5517 12.026C65.5517 13.036 65.3321 13.8924 64.893 14.639C64.4538 15.3855 63.817 15.9784 63.0046 16.3736C62.1921 16.7908 61.2479 16.9885 60.172 16.9885H56.022L56 7.10741Z" fill="black"/>
<path d="M71.4584 15.144C72.0293 15.144 72.5343 15.0123 72.9735 14.7488C73.4126 14.4853 73.764 14.112 74.0274 13.6509C74.2909 13.1898 74.4227 12.6628 74.4227 12.0699C74.4227 11.4771 74.2909 10.9501 74.0274 10.4889C73.764 10.0278 73.4126 9.65454 72.9735 9.39105C72.5343 9.12755 72.0293 8.99581 71.4584 8.99581C70.8875 8.99581 70.4044 9.12755 69.9433 9.39105C69.5041 9.65454 69.1308 10.0278 68.8893 10.4889C68.6258 10.9501 68.4941 11.4771 68.4941 12.0699C68.4941 12.6628 68.6258 13.1898 68.8893 13.6509C69.1528 14.112 69.5041 14.4853 69.9433 14.7488C70.4044 15.0123 70.9094 15.144 71.4584 15.144ZM71.4584 17.2959C70.4703 17.2959 69.548 17.0544 68.7575 16.5932C67.9451 16.1321 67.3083 15.4953 66.8692 14.6829C66.4081 13.8924 66.1885 12.9921 66.1885 12.048C66.1885 11.1038 66.4081 10.2255 66.8692 9.41301C67.3303 8.62252 67.9451 7.98574 68.7575 7.50267C69.57 7.04155 70.4703 6.80002 71.4803 6.80002C72.4904 6.80002 73.3907 7.04155 74.2031 7.50267C75.0156 7.96379 75.6523 8.60056 76.1135 9.41301C76.5746 10.2035 76.7941 11.1038 76.7941 12.048C76.7941 13.0141 76.5746 13.8924 76.1135 14.6829C75.6523 15.4734 75.0156 16.1102 74.2031 16.5932C73.3687 17.0763 72.4684 17.2959 71.4584 17.2959Z" fill="black"/>
<path d="M82.6349 15.144C83.2058 15.144 83.7109 15.0123 84.15 14.7488C84.5892 14.4853 84.9405 14.112 85.204 13.6509C85.4675 13.1898 85.5993 12.6628 85.5993 12.0699C85.5993 11.4771 85.4675 10.9501 85.204 10.4889C84.9405 10.0278 84.5892 9.65454 84.15 9.39105C83.7109 9.12755 83.2058 8.99581 82.6349 8.99581C82.064 8.99581 81.581 9.12755 81.1198 9.39105C80.6807 9.65454 80.3074 10.0278 80.0659 10.4889C79.8024 10.9501 79.6706 11.4771 79.6706 12.0699C79.6706 12.6628 79.8024 13.1898 80.0659 13.6509C80.3294 14.112 80.6807 14.4853 81.1198 14.7488C81.581 15.0123 82.086 15.144 82.6349 15.144ZM82.613 17.2959C81.6249 17.2959 80.7026 17.0544 79.9122 16.5932C79.0997 16.1321 78.4629 15.4953 78.0238 14.6829C77.5627 13.8924 77.3431 12.9921 77.3431 12.048C77.3431 11.1038 77.5627 10.2255 78.0238 9.41301C78.4849 8.62252 79.0997 7.98574 79.9122 7.50267C80.7246 7.04155 81.6249 6.80002 82.6349 6.80002C83.645 6.80002 84.5453 7.04155 85.3577 7.50267C86.1702 7.96379 86.8069 8.60056 87.2681 9.41301C87.7292 10.2035 87.9487 11.1038 87.9487 12.048C87.9487 13.0141 87.7292 13.8924 87.2681 14.6829C86.8069 15.4734 86.1702 16.1102 85.3577 16.5932C84.5453 17.0763 83.623 17.2959 82.613 17.2959Z" fill="black"/>
<path d="M93.1089 15.0123C93.7457 15.0123 94.2726 14.9025 94.7338 14.6609C95.1949 14.4194 95.5462 14.09 95.7877 13.6509C96.0293 13.2117 96.161 12.7067 96.161 12.1138C96.161 11.5209 96.0293 10.994 95.7877 10.5548C95.5462 10.1156 95.1729 9.76431 94.7118 9.52278C94.2507 9.28124 93.7017 9.14949 93.065 9.14949H91.2864V15.0123H93.1089ZM89.0027 7.10741H93.1528C94.2068 7.10741 95.151 7.30503 95.9634 7.70027C96.7758 8.09551 97.4126 8.66642 97.8737 9.41299C98.3349 10.1596 98.5544 11.0379 98.5544 12.026C98.5544 13.036 98.3349 13.8924 97.8957 14.639C97.4565 15.3855 96.8198 15.9784 96.0073 16.3736C95.1949 16.7908 94.2507 16.9885 93.1747 16.9885H89.0247L89.0027 7.10741Z" fill="black"/>
<path d="M104.461 15.144C105.032 15.144 105.537 15.0123 105.976 14.7488C106.415 14.4853 106.767 14.112 107.03 13.6509C107.294 13.1898 107.425 12.6628 107.425 12.0699C107.425 11.4771 107.294 10.9501 107.03 10.4889C106.767 10.0278 106.415 9.65454 105.976 9.39105C105.537 9.12755 105.032 8.99581 104.461 8.99581C103.89 8.99581 103.407 9.12755 102.946 9.39105C102.507 9.65454 102.134 10.0278 101.892 10.4889C101.629 10.9501 101.497 11.4771 101.497 12.0699C101.497 12.6628 101.629 13.1898 101.892 13.6509C102.156 14.112 102.507 14.4853 102.946 14.7488C103.407 15.0123 103.912 15.144 104.461 15.144ZM104.439 17.2959C103.451 17.2959 102.529 17.0544 101.738 16.5932C100.926 16.1321 100.289 15.4953 99.8499 14.6829C99.3888 13.8924 99.1693 12.9921 99.1693 12.048C99.1693 11.1038 99.3888 10.2255 99.8499 9.41301C100.311 8.62252 100.926 7.98574 101.738 7.50267C102.551 7.04155 103.451 6.80002 104.461 6.80002C105.471 6.80002 106.371 7.04155 107.184 7.50267C107.996 7.96379 108.633 8.60056 109.094 9.41301C109.555 10.2035 109.775 11.1038 109.775 12.048C109.775 13.0141 109.555 13.8924 109.094 14.6829C108.633 15.4734 107.996 16.1102 107.184 16.5932C106.371 17.0763 105.449 17.2959 104.439 17.2959Z" fill="black"/>
<path d="M115.528 17.2959C114.54 17.2959 113.661 17.0544 112.871 16.5932C112.08 16.1321 111.466 15.4953 111.005 14.6829C110.543 13.8705 110.324 12.9921 110.324 12.048C110.324 11.0818 110.543 10.2255 111.005 9.41301C111.466 8.62252 112.08 7.98574 112.871 7.50267C113.661 7.0196 114.54 6.80002 115.528 6.80002C116.384 6.80002 117.153 6.95372 117.833 7.28309C118.514 7.61246 119.107 8.05162 119.568 8.62252C120.029 9.19343 120.359 9.85217 120.556 10.5768H118.141C117.921 10.0278 117.592 9.63259 117.131 9.36909C116.67 9.1056 116.143 8.95189 115.55 8.95189C115.067 8.95189 114.584 9.08364 114.145 9.32518C113.705 9.56671 113.354 9.94 113.091 10.4011C112.827 10.8622 112.695 11.4112 112.695 12.026C112.695 12.6628 112.827 13.1898 113.091 13.6509C113.354 14.112 113.705 14.4853 114.145 14.7268C114.584 14.9684 115.045 15.1001 115.55 15.1001C115.945 15.1001 116.296 15.0342 116.648 14.9025C116.977 14.7707 117.285 14.5731 117.548 14.3316C117.811 14.0681 118.009 13.7387 118.141 13.3435H120.556C120.381 14.112 120.051 14.7927 119.59 15.3856C119.129 15.9784 118.558 16.4395 117.855 16.7689C117.131 17.1202 116.362 17.2959 115.528 17.2959Z" fill="black"/>
<path d="M125.387 17.2959C124.443 17.2959 123.652 17.1422 122.994 16.8128C122.335 16.4835 121.852 16.0663 121.544 15.5393C121.215 15.0123 121.061 14.4414 121.061 13.8485H123.323C123.345 14.1559 123.433 14.4194 123.586 14.6609C123.74 14.9025 123.982 15.0781 124.289 15.2319C124.597 15.3636 124.97 15.4295 125.409 15.4295C125.804 15.4295 126.134 15.3856 126.397 15.2758C126.661 15.166 126.858 15.0342 126.99 14.8366C127.122 14.6609 127.188 14.4194 127.188 14.1779C127.188 13.9144 127.1 13.6948 126.946 13.5191C126.792 13.3654 126.551 13.2337 126.265 13.1459C125.958 13.058 125.563 12.9702 125.058 12.9043C124.333 12.8165 123.718 12.6408 123.191 12.4212C122.664 12.2017 122.247 11.8723 121.918 11.4551C121.61 11.0379 121.435 10.4889 121.435 9.85217C121.435 9.23734 121.588 8.71035 121.874 8.24924C122.159 7.78812 122.598 7.4368 123.169 7.1733C123.74 6.93176 124.421 6.80002 125.233 6.80002C126.046 6.80002 126.748 6.93176 127.363 7.19526C127.978 7.45875 128.461 7.83204 128.79 8.31511C129.12 8.79819 129.295 9.34713 129.295 9.96196L126.968 9.94C126.946 9.69846 126.88 9.47888 126.748 9.28126C126.617 9.08364 126.419 8.95189 126.156 8.8421C125.892 8.73231 125.585 8.6884 125.233 8.6884C124.904 8.6884 124.64 8.73231 124.421 8.8421C124.201 8.92993 124.026 9.06168 123.938 9.23734C123.828 9.41301 123.784 9.58867 123.784 9.78629C123.784 10.0278 123.85 10.2254 123.96 10.3792C124.07 10.5329 124.267 10.6427 124.553 10.7524C124.838 10.8403 125.299 10.9501 125.892 11.0379C125.958 11.0379 126.002 11.0599 126.068 11.0599C126.134 11.0818 126.199 11.0818 126.265 11.1038C126.99 11.2355 127.583 11.3892 128.066 11.6088C128.527 11.8064 128.9 12.1138 129.186 12.5091C129.471 12.9043 129.603 13.4093 129.603 14.0461C129.603 14.7488 129.427 15.3416 129.054 15.8247C128.703 16.3078 128.198 16.6811 127.561 16.9226C126.924 17.1861 126.199 17.3179 125.387 17.2959Z" fill="black"/>
<path d="M45.6505 14.0531C46.5508 12.8454 46.5508 11.1766 45.6505 9.96889L39.2827 1.38335C38.6459 0.505031 37.6139 0 36.538 0H3.42543C1.53705 0 0 1.53705 0 3.42543V20.5746C0 22.4629 1.53705 24 3.42543 24H36.538C37.6139 24 38.6459 23.495 39.2827 22.6166L45.6505 14.0531Z" fill="#00FF20"/>
</svg>
